<svg version="1.1" xmlns="http://www.w3.org/2000/svg" xmlns:xlink="http://www.w3.org/1999/xlink" width="369.4728" height="242.05426" viewBox="0,0,369.4728,242.05426"><g transform="translate(-55.68181,-59.31895)"><g data-paper-data="{&quot;isPaintingLayer&quot;:true}" fill="#ffffff" fill-rule="nonzero" stroke="none" stroke-width="1" stroke-linecap="butt" stroke-linejoin="miter" stroke-miterlimit="10" stroke-dasharray="" stroke-dashoffset="0" font-family="none" font-weight="none" font-size="none" text-anchor="none" style="mix-blend-mode: normal"><path d="M171.87261,60.29886c-0.004,-0.872 0.336,-1.154 1.057,-0.878c0.584,0.224 28.363,1.047 61.731,1.828c33.368,0.782 60.801,1.553 60.962,1.714c0.161,0.161 0.06,25.064 -0.223,55.339l-0.516,55.046h-3.924c-23.46,0 -105.798,-1.627 -106.698,-2.109c-0.649,-0.347 -2.924,-0.704 -5.057,-0.794c-2.132,-0.089 -3.879,-0.484 -3.882,-0.878c-0.003,-0.394 -0.779,-24.852 -1.725,-54.35c-0.946,-29.498 -1.722,-54.212 -1.725,-54.918M234.18161,62.63886c-32.862,-0.771 -60.038,-1.401 -60.391,-1.401c-0.385,0 -0.468,4.087 -0.208,10.207c0.238,5.615 1.036,29.642 1.773,53.395c0.737,23.752 1.466,43.313 1.621,43.467c0.534,0.535 8.98,1.51 9.624,1.111c0.356,-0.219 0.854,-0.064 1.107,0.346c0.368,0.595 74.581,2.186 102.586,2.199l3.201,0.001l0.516,-53.664c0.284,-29.516 0.382,-53.799 0.218,-53.963c-0.164,-0.164 -27.185,-0.928 -60.047,-1.698M234.92861,73.74686c0.861,-2.469 0.768,-2.438 3.348,-1.104c1.467,0.758 1.886,1.386 1.615,2.422c-0.215,0.821 -0.028,1.398 0.454,1.398c0.504,0 0.65,0.532 0.38,1.384c-0.252,0.794 -0.124,1.384 0.299,1.384c0.407,0 0.739,0.604 0.739,1.343c0,0.739 0.316,1.539 0.703,1.778c0.387,0.239 0.516,0.738 0.287,1.109c-0.23,0.371 -0.052,1.115 0.394,1.652c0.446,0.538 0.609,1.305 0.362,1.705c-0.247,0.4 0.003,0.901 0.556,1.113c0.595,0.228 0.862,0.932 0.655,1.725c-0.201,0.768 0,1.339 0.469,1.339c0.505,0 0.651,0.532 0.38,1.385c-0.252,0.794 -0.124,1.384 0.3,1.384c0.406,0 0.738,0.604 0.738,1.343c0,0.739 0.298,1.527 0.662,1.752c0.364,0.225 0.485,0.87 0.269,1.434c-0.267,0.694 0.277,1.259 1.684,1.749c1.576,0.55 1.994,1.049 1.727,2.068c-0.206,0.788 -0.001,1.342 0.496,1.342c0.466,0 0.671,0.457 0.457,1.016c-0.215,0.559 -0.092,1.2 0.272,1.425c0.364,0.225 0.662,1.014 0.662,1.752c0,0.739 0.332,1.344 0.738,1.344c0.424,0 0.552,0.59 0.3,1.384c-0.271,0.852 -0.125,1.384 0.38,1.384c0.479,0 0.669,0.575 0.457,1.384c-0.199,0.761 -0.043,1.384 0.346,1.384c0.39,0 0.551,0.603 0.358,1.339c-0.193,0.737 0.031,1.486 0.496,1.664c0.48,0.185 0.809,1.436 0.761,2.891c-0.052,1.553 0.275,2.704 0.828,2.916c0.538,0.206 0.743,0.886 0.5,1.652c-0.228,0.72 -0.083,1.303 0.325,1.303c0.407,0 0.739,0.617 0.739,1.371c0,0.885 0.613,1.524 1.73,1.805c2.091,0.524 2.088,0.491 0.284,4.218c-1.628,3.364 -1.767,3.428 -4.025,1.847c-1.515,-1.062 -1.672,-1.059 -2.288,0.042c-0.605,1.081 -0.8,1.089 -2.309,0.101c-2.048,-1.342 -2.389,-1.348 -2.389,-0.042c0,1.309 -0.339,1.301 -2.413,-0.058c-1.634,-1.071 -1.696,-1.038 -2.743,1.469c-1.271,3.04 -1.316,3.583 -0.324,3.913c0.517,0.173 0.475,0.846 -0.134,2.184c-0.729,1.599 -0.716,2.036 0.073,2.524c0.81,0.5 0.81,0.763 0.002,1.736c-0.726,0.875 -0.767,1.442 -0.175,2.392c1.253,2.005 -1.052,6.376 -3.109,5.899c-1.09,-0.254 -1.557,-0.047 -1.557,0.689c0,1.323 -0.679,1.329 -2.544,0.023c-1.309,-0.916 -1.514,-0.908 -1.89,0.072c-0.232,0.605 -0.861,0.932 -1.397,0.726c-0.536,-0.206 -1.148,0.076 -1.359,0.625c-0.308,0.804 -1.2,0.572 -4.555,-1.187c-4.759,-2.495 -4.634,-2.248 -2.727,-5.376c1.312,-2.151 1.339,-2.418 0.302,-2.999c-1.055,-0.59 -1.053,-0.767 0.023,-2.409c1.051,-1.604 1.057,-1.83 0.07,-2.383c-0.6,-0.335 -0.914,-1.069 -0.699,-1.63c0.215,-0.561 0.01,-1.02 -0.456,-1.02c-0.487,0 -0.702,-0.55 -0.507,-1.297c0.438,-1.675 -4.2,-4.186 -5.085,-2.754c-0.431,0.698 -0.891,0.685 -2.291,-0.064c-1.356,-0.726 -1.974,-0.753 -2.737,-0.12c-1.264,1.05 -6.255,-1.667 -5.704,-3.104c0.196,-0.511 -0.136,-1.204 -0.739,-1.541c-0.938,-0.525 -0.46,-1.835 3.316,-9.096c3.013,-5.794 4.137,-8.585 3.546,-8.805c-1.474,-0.551 -1.005,-2.393 0.548,-2.155c1.89,0.29 4.678,-5.305 2.971,-5.96c-1.543,-0.592 -0.685,-2.162 1.044,-1.911c0.985,0.143 1.493,-0.152 1.493,-0.865c0,-0.595 -0.458,-1.082 -1.017,-1.082c-0.628,0 -0.861,-0.404 -0.61,-1.059c0.252,-0.656 0.889,-0.905 1.676,-0.655c1.838,0.583 4.666,-4.822 3.008,-5.75c-1.655,-0.927 7.748,-19.704 9.576,-19.123c0.932,0.295 1.429,-0.139 1.985,-1.734M236.54061,85.29886l1.005,-2.406l-2.009,0.072c-2.666,0.096 -4.221,2.996 -2.342,4.369c1.176,0.861 2.341,1.175 2.341,0.632c0,-0.144 0.452,-1.344 1.005,-2.667M239.42061,94.01586c0.792,-1.913 0.75,-2.303 -0.356,-3.304c-1.549,-1.402 -2.002,-0.906 -4.166,4.552c-0.855,2.157 -2.307,4.943 -3.227,6.19c-1.769,2.398 -2.156,4.074 -0.941,4.074c0.402,0 1.67,-2.124 2.817,-4.721c1.64,-3.715 2.393,-4.71 3.53,-4.671c0.99,0.034 1.727,-0.632 2.343,-2.12M242.84261,99.59686c-0.739,-0.544 -1.68,-0.989 -2.091,-0.989c-0.662,0 -5.908,10.003 -5.908,11.266c0,1.528 1.613,0.097 2.753,-2.443c1.593,-3.547 3.343,-5.683 5.205,-6.35c1.367,-0.49 1.367,-0.508 0.041,-1.484M229.32661,104.66286c-0.081,-2.153 -3.26,2.334 -6.128,8.651c-0.129,0.285 0.18,0.516 0.687,0.513c0.823,-0.005 5.49,-7.865 5.441,-9.164M245.94061,106.23386c-1.888,-1.011 -1.905,-1 -3.346,2.236c-0.72,1.617 -2.136,4.152 -3.146,5.632c-2.032,2.978 -2.338,4.575 -0.877,4.575c0.528,0 1.823,-2.029 2.877,-4.51c1.48,-3.483 2.181,-4.427 3.076,-4.142c1.862,0.59 3.151,-2.863 1.416,-3.791M232.87061,112.10286c0,-0.362 -0.335,-0.769 -0.744,-0.906c-0.409,-0.136 -0.744,0.271 -0.744,0.906c0,0.634 0.335,1.042 0.744,0.905c0.409,-0.136 0.744,-0.544 0.744,-0.905M230.76261,116.11386c0.497,-0.497 0.509,-0.884 0.036,-1.176c-0.387,-0.24 -0.912,-0.098 -1.167,0.314c-0.658,1.064 0.243,1.75 1.131,0.862M250.06761,115.60786c0,-0.432 -1.08,-0.4 -2.958,0.089c-1.445,0.376 -5.605,8.23 -4.934,9.315c0.256,0.414 1.366,-0.826 2.503,-2.795c1.124,-1.947 2.474,-3.54 3,-3.54c0.841,0 2.389,-1.989 2.389,-3.069M229.30661,124.34886c0,-0.455 -0.329,-0.828 -0.731,-0.828c-0.77,0 -3.753,6.127 -3.236,6.645c0.415,0.415 3.967,-4.793 3.967,-5.817M217.46161,128.32586c1.158,-1.566 1.396,-2.382 0.852,-2.925c-0.543,-0.544 -0.956,-0.173 -1.48,1.331c-0.442,1.267 -1.191,2.064 -1.912,2.032c-1.718,-0.076 -2.139,1.294 -0.472,1.533c0.918,0.132 1.964,-0.553 3.012,-1.971M232.07461,132.86386c0,-1.081 -0.818,-1.373 -1.614,-0.577c-0.797,0.797 -0.504,1.615 0.576,1.615c0.571,0 1.038,-0.467 1.038,-1.038M236.64161,142.68386c3.132,-6.387 3.231,-7.828 0.437,-6.355c-1.439,0.759 -8.16,12.64 -7.515,13.285c1.53,1.53 4.222,-1.106 7.078,-6.93M97.72961,182.86386c22.696,-0.101 47.494,-0.26 55.107,-0.352l13.84,-0.167l-0.184,58.823c-0.124,39.515 0.046,58.824 0.519,58.824c0.387,0 0.704,0.311 0.704,0.692c0,0.873 -109.956,0.94 -111.333,0.068c-0.802,-0.508 -0.87,-9.811 -0.435,-59.153l0.517,-58.551l41.265,-0.184M164.94661,241.86086v-58.132l-12.629,0.112c-25.79,0.227 -94.177,1.274 -94.329,1.443c-0.087,0.096 -0.387,25.945 -0.667,57.442l-0.509,57.266h54.067h54.067v-58.131M179.04561,185.63186c-0.361,-1.865 -0.302,-1.903 2.974,-1.888c1.839,0.008 25.92,0.468 53.516,1.023c27.595,0.555 51.685,1.016 53.534,1.024c2.779,0.012 3.288,0.204 2.941,1.11c-0.232,0.603 0.215,26.178 0.993,56.833c0.778,30.655 1.323,55.776 1.212,55.825c-0.112,0.048 -25.777,-0.188 -57.035,-0.523l-56.832,-0.61l-0.468,-55.446c-0.258,-30.494 -0.633,-56.301 -0.835,-57.348M308.90861,188.74586c-0.017,-4.262 0.011,-4.325 1.886,-4.318c1.047,0.003 26.344,0.624 56.216,1.379c29.873,0.755 54.895,1.189 55.607,0.963c1.115,-0.354 1.234,-0.139 0.86,1.561c-0.238,1.085 0.042,24.55 0.621,52.145c0.579,27.596 1.054,51.653 1.055,53.461l0.001,3.287h-57.093h-57.094l-0.017,-3.287c-0.009,-1.808 -0.469,-25.243 -1.021,-52.076c-0.552,-26.834 -1.011,-50.736 -1.021,-53.115M236.18861,186.17386c-29.477,-0.58 -54.035,-1.056 -54.573,-1.057c-0.838,-0.003 -0.913,6.049 -0.52,42.038c0.253,23.122 0.459,48.308 0.46,55.968v13.927l55.396,0.516c30.468,0.284 55.535,0.376 55.706,0.205c0.326,-0.325 -2.335,-110.005 -2.677,-110.346c-0.109,-0.109 -24.315,-0.672 -53.792,-1.251M366.27661,187.19486c-30.229,-0.762 -55.196,-1.387 -55.482,-1.388c-0.65,-0.002 -0.675,-2.686 0.519,55.362c0.552,26.833 1.012,50.112 1.021,51.73l0.017,2.941h55.636h55.637l-0.007,-1.557c-0.035,-8.525 -2.042,-105.367 -2.186,-105.511c-0.106,-0.106 -24.925,-0.815 -55.155,-1.577M237.61161,199.68686c0,-1.201 2.454,-0.833 4.341,0.651c0.968,0.761 2.265,1.384 2.883,1.384c1.843,0 2.013,1.9 0.413,4.612c-1.358,2.302 -1.395,2.608 -0.376,3.178c1.034,0.578 1.036,0.769 0.023,2.315c-1.01,1.541 -1.01,1.721 -0.002,2.108c0.606,0.232 0.938,0.849 0.738,1.371c-0.201,0.522 -0.063,0.949 0.306,0.949c0.369,0 0.67,0.564 0.67,1.254c0,1.833 4.031,4.712 4.583,3.273c0.53,-1.381 1.568,-1.352 3.159,0.088c1.196,1.083 1.344,1.072 2.347,-0.173c0.775,-0.961 1.172,-1.085 1.436,-0.448c0.201,0.484 1.287,1.356 2.414,1.939c1.547,0.8 1.944,1.389 1.621,2.407c-0.3,0.945 -0.103,1.349 0.657,1.349c1.661,0 0.526,2.706 -4.965,11.84c-2.246,3.737 -2.86,6.153 -1.563,6.153c0.38,0 0.692,0.503 0.692,1.118c0,0.79 -0.42,1.009 -1.427,0.746c-1.071,-0.28 -1.761,0.175 -2.766,1.822c-1.607,2.637 -1.708,3.926 -0.305,3.926c1.163,0 1.211,0.128 0.623,1.661c-0.313,0.815 -0.73,0.914 -1.689,0.401c-1.71,-0.916 -2.672,0.615 -1.106,1.76c0.853,0.624 1.001,1.259 0.569,2.429c-0.493,1.333 -0.656,1.402 -1.027,0.435c-0.7,-1.825 -1.796,-1.349 -3.077,1.338c-1.132,2.374 -1.129,2.531 0.082,3.416c1.195,0.874 0.977,1.489 -3.762,10.65c-3.919,7.572 -5.228,9.558 -5.923,8.981c-1.002,-0.831 -2.332,-0.278 -2.348,0.977c-0.006,0.453 -0.276,1.243 -0.6,1.754c-0.849,1.34 -5.048,-0.843 -4.478,-2.328c0.219,-0.573 0.042,-1.472 -0.395,-1.998c-0.436,-0.526 -0.733,-1.223 -0.659,-1.548c0.074,-0.326 -0.071,-1.137 -0.322,-1.803c-0.251,-0.666 -0.661,-1.756 -0.911,-2.422c-0.25,-0.667 -0.392,-1.601 -0.316,-2.077c0.077,-0.475 -0.222,-0.865 -0.663,-0.865c-0.463,0 -0.65,-0.587 -0.441,-1.384c0.199,-0.761 0.079,-1.384 -0.266,-1.384c-0.345,0 -0.627,-0.604 -0.627,-1.343c0,-0.739 -0.333,-1.549 -0.739,-1.8c-0.407,-0.251 -0.576,-0.883 -0.376,-1.403c0.199,-0.52 0.092,-1.113 -0.239,-1.318c-0.331,-0.204 -0.812,-1.615 -1.069,-3.136c-0.257,-1.52 -0.751,-2.803 -1.098,-2.851c-1.346,-0.184 -1.697,-0.298 -2.504,-0.811c-0.459,-0.292 -0.66,-0.988 -0.445,-1.547c0.214,-0.559 0.009,-1.016 -0.457,-1.016c-0.506,0 -0.701,-0.557 -0.485,-1.384c0.199,-0.761 0.08,-1.384 -0.265,-1.384c-0.345,0 -0.627,-0.604 -0.627,-1.343c0,-0.739 -0.333,-1.549 -0.74,-1.8c-0.406,-0.251 -0.576,-0.883 -0.376,-1.403c0.2,-0.52 0.044,-1.143 -0.346,-1.384c-0.39,-0.241 -0.542,-0.874 -0.337,-1.406c0.204,-0.533 0.069,-0.968 -0.299,-0.968c-0.369,0 -0.671,-0.605 -0.671,-1.344c0,-0.738 -0.332,-1.548 -0.739,-1.8c-0.406,-0.251 -0.576,-0.882 -0.376,-1.402c0.2,-0.521 0.05,-1.14 -0.333,-1.376c-0.446,-0.276 -0.382,-0.807 0.178,-1.481c0.709,-0.855 0.678,-1.199 -0.165,-1.842c-0.57,-0.434 -0.925,-1.335 -0.788,-2.001c0.137,-0.666 -0.107,-1.211 -0.541,-1.211c-0.474,0 -0.614,-0.552 -0.35,-1.384c0.337,-1.06 0.125,-1.384 -0.907,-1.384c-2.577,0 -3.299,-1.907 -1.462,-3.863c1.348,-1.435 1.465,-1.855 0.657,-2.355c-0.756,-0.467 -0.556,-0.715 0.863,-1.071c1.294,-0.325 2.201,-0.109 3.031,0.721c1.111,1.111 1.238,1.112 2.039,0.016c0.794,-1.085 0.977,-1.088 2.584,-0.035c1.607,1.053 1.776,1.051 2.38,-0.027c0.607,-1.085 0.771,-1.082 2.473,0.033c1.741,1.141 1.841,1.136 2.226,-0.092c0.222,-0.707 0.73,-1.886 1.128,-2.619c0.564,-1.039 0.457,-1.528 -0.481,-2.214c-1.111,-0.813 -1.118,-0.968 -0.082,-2.004c1.383,-1.383 1.429,-2.333 0.138,-2.828c-0.542,-0.208 -1.149,-0.805 -1.349,-1.328c-0.236,-0.614 -0.013,-0.814 0.632,-0.566c1.595,0.612 2.135,-1.885 0.643,-2.976c-1.215,-0.889 -1.219,-0.984 -0.074,-1.822c1.064,-0.778 1.592,-2.051 1.771,-4.271c0.029,-0.362 0.427,-0.284 0.884,0.173c1.154,1.154 2.629,1.038 2.629,-0.208c0,-1.357 0.628,-1.311 2.257,0.164c1.263,1.142 1.374,1.139 2.258,-0.069c0.511,-0.7 1.262,-1.066 1.668,-0.815c0.406,0.25 0.738,0.126 0.738,-0.277M240.58261,207.69186c-0.691,-0.691 -1.587,-0.503 -1.587,0.333c0,0.421 -0.479,0.582 -1.063,0.358c-1.055,-0.405 -7.942,12.247 -7.116,13.072c0.848,0.849 4.744,-1.961 5.12,-3.693c0.651,-2.992 1.797,-5.659 2.433,-5.659c0.809,0 2.752,-3.872 2.213,-4.411M126.33061,214.31686c1.107,-1.106 1.241,-1.076 3.141,0.709c1.353,1.271 1.744,1.368 2.246,0.555c0.467,-0.756 0.716,-0.556 1.072,0.863c0.325,1.294 0.109,2.201 -0.721,3.031c-1.111,1.111 -1.112,1.238 -0.017,2.039c1.086,0.794 1.088,0.977 0.035,2.584c-1.052,1.607 -1.05,1.776 0.028,2.38c1.084,0.607 1.082,0.771 -0.033,2.473c-1.141,1.741 -1.137,1.841 0.091,2.226c0.708,0.222 1.886,0.73 2.62,1.128c1.039,0.564 1.528,0.457 2.214,-0.481c0.812,-1.111 0.968,-1.118 2.003,-0.082c1.384,1.383 2.333,1.429 2.829,0.137c0.208,-0.541 0.805,-1.148 1.327,-1.348c0.615,-0.236 0.815,-0.013 0.567,0.632c-0.612,1.595 1.885,2.134 2.975,0.643c0.889,-1.216 0.985,-1.219 1.822,-0.074c0.778,1.064 2.052,1.592 4.272,1.771c0.362,0.029 0.284,0.427 -0.173,0.883c-1.155,1.155 -1.038,2.63 0.208,2.63c1.356,0 1.311,0.627 -0.164,2.257c-1.144,1.264 -1.138,1.375 0.122,2.297c0.729,0.533 1.119,1.174 0.867,1.426c-0.252,0.252 0.022,0.809 0.608,1.237c0.938,0.686 0.854,1.094 -0.702,3.387c-0.973,1.433 -1.769,3.07 -1.769,3.636c0,1.753 -1.951,1.888 -4.612,0.318c-2.302,-1.358 -2.608,-1.395 -3.178,-0.376c-0.578,1.034 -0.769,1.036 -2.315,0.023c-1.541,-1.01 -1.721,-1.01 -2.108,-0.002c-0.232,0.606 -0.85,0.938 -1.372,0.738c-0.521,-0.201 -0.948,-0.063 -0.948,0.306c0,0.369 -0.565,0.67 -1.254,0.67c-1.834,0 -4.712,4.031 -3.273,4.583c1.381,0.53 1.352,1.568 -0.089,3.159c-1.082,1.196 -1.071,1.344 0.173,2.347c0.962,0.775 1.086,1.172 0.449,1.436c-0.484,0.201 -1.356,1.287 -1.939,2.414c-0.8,1.547 -1.39,1.944 -2.408,1.621c-0.944,-0.3 -1.348,-0.104 -1.348,0.657c0,1.661 -2.706,0.526 -11.84,-4.965c-3.737,-2.246 -6.153,-2.86 -6.153,-1.563c0,0.38 -0.503,0.692 -1.119,0.692c-0.789,0 -1.009,-0.42 -0.745,-1.427c0.28,-1.071 -0.175,-1.761 -1.823,-2.766c-2.636,-1.607 -3.925,-1.708 -3.925,-0.305c0,1.163 -0.128,1.211 -1.661,0.622c-0.815,-0.312 -0.914,-0.729 -0.401,-1.688c0.915,-1.71 -0.616,-2.672 -1.761,-1.106c-0.623,0.853 -1.258,1.001 -2.428,0.569c-1.333,-0.494 -1.402,-0.656 -0.435,-1.027c1.825,-0.701 1.348,-1.796 -1.339,-3.077c-2.373,-1.132 -2.53,-1.129 -3.415,0.082c-0.874,1.195 -1.49,0.977 -10.65,-3.762c-7.573,-3.919 -9.559,-5.228 -8.982,-5.923c0.832,-1.002 0.279,-2.332 -0.976,-2.348c-0.453,-0.006 -1.243,-0.276 -1.755,-0.6c-1.339,-0.849 0.844,-5.048 2.329,-4.479c0.573,0.22 1.472,0.043 1.998,-0.394c0.526,-0.436 1.223,-0.733 1.548,-0.659c0.326,0.073 1.137,-0.071 1.803,-0.322c0.666,-0.251 1.756,-0.661 2.422,-0.911c0.666,-0.25 1.601,-0.392 2.076,-0.316c0.476,0.077 0.865,-0.222 0.865,-0.663c0,-0.463 0.588,-0.65 1.384,-0.442c0.762,0.2 1.385,0.08 1.385,-0.265c0,-0.345 0.604,-0.627 1.343,-0.627c0.739,0 1.549,-0.333 1.8,-0.739c0.251,-0.407 0.882,-0.576 1.403,-0.377c0.52,0.2 1.113,0.093 1.317,-0.238c0.205,-0.331 1.616,-0.812 3.137,-1.069c1.52,-0.257 2.803,-0.751 2.851,-1.098c0.184,-1.346 0.298,-1.697 0.811,-2.504c0.292,-0.459 0.988,-0.66 1.547,-0.445c0.558,0.214 1.015,0.009 1.015,-0.457c0,-0.506 0.557,-0.701 1.385,-0.485c0.761,0.199 1.384,0.08 1.384,-0.265c0,-0.345 0.604,-0.628 1.343,-0.628c0.739,0 1.549,-0.332 1.8,-0.739c0.251,-0.406 0.882,-0.576 1.403,-0.376c0.52,0.2 1.143,0.044 1.384,-0.346c0.241,-0.39 0.874,-0.542 1.406,-0.338c0.532,0.205 0.968,0.07 0.968,-0.298c0,-0.369 0.605,-0.671 1.343,-0.671c0.739,0 1.549,-0.332 1.8,-0.739c0.252,-0.407 0.883,-0.576 1.403,-0.376c0.52,0.199 1.14,0.05 1.376,-0.333c0.276,-0.446 0.806,-0.382 1.481,0.177c0.855,0.71 1.199,0.679 1.842,-0.164c0.434,-0.571 1.335,-0.925 2.001,-0.788c0.666,0.137 1.211,-0.107 1.211,-0.541c0,-0.474 0.552,-0.614 1.384,-0.35c1.047,0.332 1.384,0.124 1.384,-0.853c0,-0.711 0.374,-1.666 0.83,-2.123M352.49061,214.57186c0,-1.662 2.706,-0.527 11.84,4.964c3.737,2.246 6.153,2.86 6.153,1.563c0,-0.38 0.503,-0.692 1.118,-0.692c0.79,0 1.009,0.421 0.746,1.427c-0.28,1.071 0.175,1.761 1.823,2.766c2.636,1.607 3.925,1.708 3.925,0.306c0,-1.164 0.128,-1.212 1.661,-0.623c0.815,0.312 0.914,0.729 0.401,1.688c-0.916,1.71 0.615,2.672 1.76,1.106c0.624,-0.852 1.259,-1.001 2.429,-0.569c1.333,0.494 1.402,0.656 0.435,1.027c-1.825,0.701 -1.349,1.796 1.338,3.078c2.374,1.132 2.531,1.128 3.416,-0.083c0.874,-1.195 1.489,-0.977 10.65,3.762c7.573,3.919 9.558,5.228 8.982,5.923c-0.832,1.002 -0.279,2.332 0.976,2.348c0.453,0.006 1.243,0.276 1.754,0.6c1.34,0.85 -0.843,5.049 -2.328,4.479c-0.573,-0.22 -1.472,-0.043 -1.998,0.394c-0.526,0.436 -1.223,0.733 -1.548,0.659c-0.326,-0.073 -1.137,0.071 -1.803,0.322c-0.666,0.251 -1.756,0.661 -2.422,0.911c-0.666,0.251 -1.601,0.393 -2.077,0.316c-0.475,-0.077 -0.865,0.222 -0.865,0.663c0,0.463 -0.587,0.65 -1.384,0.442c-0.761,-0.199 -1.384,-0.08 -1.384,0.265c0,0.345 -0.604,0.627 -1.343,0.627c-0.739,0 -1.549,0.333 -1.8,0.739c-0.251,0.407 -0.883,0.576 -1.403,0.377c-0.52,-0.2 -1.113,-0.093 -1.318,0.238c-0.204,0.331 -1.615,0.812 -3.136,1.069c-1.52,0.257 -2.803,0.751 -2.851,1.098c-0.184,1.346 -0.298,1.697 -0.811,2.504c-0.292,0.459 -0.988,0.66 -1.547,0.445c-0.558,-0.214 -1.016,-0.008 -1.016,0.457c0,0.506 -0.557,0.701 -1.384,0.485c-0.761,-0.199 -1.384,-0.08 -1.384,0.265c0,0.345 -0.604,0.628 -1.343,0.628c-0.739,0 -1.549,0.332 -1.8,0.739c-0.251,0.406 -0.883,0.576 -1.403,0.376c-0.52,-0.2 -1.143,-0.044 -1.384,0.346c-0.241,0.39 -0.874,0.542 -1.406,0.338c-0.533,-0.205 -0.968,-0.07 -0.968,0.299c0,0.368 -0.605,0.67 -1.344,0.67c-0.738,0 -1.548,0.332 -1.8,0.739c-0.251,0.407 -0.882,0.576 -1.402,0.376c-0.521,-0.199 -1.14,-0.05 -1.376,0.333c-0.276,0.446 -0.807,0.383 -1.481,-0.177c-0.855,-0.71 -1.199,-0.679 -1.842,0.164c-0.434,0.571 -1.335,0.925 -2.001,0.788c-0.666,-0.137 -1.211,0.107 -1.211,0.541c0,0.474 -0.552,0.614 -1.384,0.35c-1.06,-0.336 -1.384,-0.124 -1.384,0.907c0,2.578 -1.907,3.299 -3.863,1.462c-1.435,-1.348 -1.855,-1.465 -2.355,-0.657c-0.467,0.756 -0.715,0.556 -1.071,-0.863c-0.325,-1.293 -0.109,-2.201 0.721,-3.031c1.111,-1.111 1.112,-1.238 0.016,-2.039c-1.085,-0.794 -1.088,-0.977 -0.035,-2.584c1.053,-1.607 1.051,-1.776 -0.027,-2.38c-1.085,-0.607 -1.082,-0.771 0.033,-2.473c1.141,-1.741 1.136,-1.841 -0.092,-2.226c-0.707,-0.222 -1.886,-0.73 -2.619,-1.128c-1.039,-0.563 -1.528,-0.457 -2.214,0.481c-0.813,1.111 -0.968,1.118 -2.003,0.083c-1.384,-1.384 -2.334,-1.43 -2.829,-0.138c-0.208,0.541 -0.805,1.148 -1.328,1.348c-0.614,0.236 -0.814,0.014 -0.566,-0.632c0.612,-1.595 -1.885,-2.134 -2.976,-0.643c-0.888,1.216 -0.984,1.219 -1.822,0.074c-0.778,-1.064 -2.051,-1.592 -4.271,-1.771c-0.362,-0.029 -0.284,-0.427 0.173,-0.883c1.154,-1.155 1.038,-2.63 -0.208,-2.63c-1.357,0 -1.311,-0.627 0.164,-2.257c1.144,-1.264 1.138,-1.375 -0.123,-2.297c-0.728,-0.532 -1.118,-1.174 -0.866,-1.426c0.252,-0.252 -0.022,-0.809 -0.609,-1.237c-0.937,-0.686 -0.853,-1.094 0.703,-3.387c0.973,-1.433 1.769,-3.069 1.769,-3.635c0,-1.754 1.951,-1.889 4.612,-0.319c2.302,1.359 2.608,1.395 3.178,0.376c0.578,-1.034 0.769,-1.036 2.315,-0.023c1.541,1.01 1.721,1.01 2.108,0.002c0.232,-0.606 0.849,-0.938 1.371,-0.738c0.522,0.201 0.949,0.063 0.949,-0.306c0,-0.368 0.564,-0.67 1.254,-0.67c1.833,0 4.712,-4.031 3.273,-4.583c-1.381,-0.53 -1.352,-1.567 0.089,-3.159c1.082,-1.196 1.071,-1.344 -0.173,-2.347c-0.962,-0.775 -1.086,-1.172 -0.449,-1.436c0.484,-0.201 1.356,-1.287 1.939,-2.414c0.8,-1.547 1.389,-1.944 2.408,-1.621c0.944,0.3 1.348,0.104 1.348,-0.656M355.82861,221.56086c0.132,-0.683 -0.221,-1.154 -0.865,-1.154c-0.642,0 -1.089,0.592 -1.089,1.442c0,1.687 1.617,1.448 1.954,-0.288M358.54561,225.07886c-0.158,-0.476 -0.806,-0.966 -1.439,-1.089c-0.803,-0.156 -1.025,0.106 -0.734,0.865c0.491,1.28 2.597,1.496 2.173,0.224M114.72661,228.45286c-0.714,-1.622 -2.687,-2.299 -3.389,-1.164c-0.248,0.402 -0.122,0.731 0.281,0.731c0.403,0 0.734,0.545 0.735,1.211c0.001,0.996 4.658,4.091 8.418,5.594c2.06,0.823 0.02,-1.948 -2.412,-3.277c-1.644,-0.898 -3.279,-2.291 -3.633,-3.095M256.98861,228.41586c0,-0.641 -0.592,-1.088 -1.442,-1.088c-1.686,0 -1.448,1.617 0.288,1.954c0.683,0.132 1.154,-0.221 1.154,-0.866M105.61361,230.26886c-1.542,-1.172 -2.717,-1.088 -3.222,0.229c-0.735,1.916 -0.459,2.537 0.964,2.165c0.763,-0.199 1.384,-0.021 1.384,0.398c0,0.418 0.453,0.155 1.006,-0.584c0.889,-1.186 0.873,-1.444 -0.132,-2.208M243.83961,230.06286c0,-1.362 -1.386,-0.587 -2.377,1.329c-0.95,1.837 -0.841,2.856 0.305,2.856c0.515,0 2.072,-3.144 2.072,-4.185M253.28961,231.10386c0.487,-1.27 0.203,-1.622 -0.972,-1.202c-1.039,0.371 -1.166,2.27 -0.152,2.27c0.393,0 0.899,-0.481 1.124,-1.068M375.41261,233.02386c-4.373,-2.405 -4.929,-2.584 -4.929,-1.594c0,0.353 1.868,1.777 4.152,3.164c2.284,1.387 4.152,2.956 4.152,3.486c0,1.126 2.13,2.409 3.934,2.368c0.987,-0.022 0.775,-0.44 -0.993,-1.953c-1.237,-1.059 -2.249,-2.22 -2.249,-2.58c0,-0.361 -1.83,-1.662 -4.067,-2.891M228.49961,232.74886c0.847,-2.119 -1.968,0.016 -3.345,2.537c-0.936,1.713 -2.059,3.114 -2.496,3.114c-1.333,0 -2.537,1.976 -1.999,3.279c0.341,0.825 0.608,0.94 0.827,0.355c0.178,-0.476 0.842,-0.866 1.477,-0.867c0.934,-0.001 4.088,-4.797 5.536,-8.418M97.63361,234.07486c-0.625,-1.635 -1.697,-1.528 -2.253,0.224c-0.511,1.61 0.969,3.103 3.822,3.856c0.952,0.251 2.613,1.189 3.692,2.085c1.079,0.897 2.247,1.454 2.595,1.238c1.213,-0.749 0.617,-1.55 -1.961,-2.638c-3.038,-1.281 -5.243,-3.064 -5.895,-4.765M359.03161,234.35886c-2.151,-0.98 -3.081,-1.019 -3.081,-0.129c0,0.869 3.839,2.869 4.41,2.297c0.795,-0.794 0.45,-1.357 -1.329,-2.168M112.55961,236.06586c-2.529,-1.286 -3.668,-1.425 -3.668,-0.448c0,1.093 5.388,3.581 5.914,2.731c0.54,-0.874 0.557,-0.857 -2.246,-2.283M91.21161,237.12686c-0.969,-0.441 -1.825,-0.783 -1.903,-0.759c-3.909,1.221 -4.093,2.234 -0.659,3.637c2.358,0.964 2.674,0.959 3.46,-0.058c1.212,-1.568 1.104,-1.907 -0.898,-2.82M338.64961,239.02586c0,-1.069 -4.024,-2.777 -4.548,-1.93c-0.261,0.422 -0.083,1.009 0.396,1.304c0.478,0.296 0.655,0.884 0.394,1.307c-0.483,0.781 12.432,7.551 13.11,6.872c0.849,-0.848 -1.961,-4.744 -3.693,-5.12c-2.992,-0.651 -5.659,-1.797 -5.659,-2.433M368.92661,238.11186c0.234,-0.235 0.093,-0.76 -0.314,-1.168c-0.497,-0.497 -0.885,-0.509 -1.177,-0.036c-0.491,0.795 0.831,1.864 1.491,1.204M139.27961,240.13686c-5.857,-2.872 -7.551,-3.518 -7.551,-2.881c0,1.537 2.53,4.68 4.03,5.006c2.992,0.651 5.659,1.797 5.659,2.433c0,1.069 4.024,2.777 4.548,1.93c0.26,-0.422 0.082,-1.009 -0.396,-1.304c-0.478,-0.296 -0.657,-0.881 -0.398,-1.301c0.293,-0.473 -1.943,-1.947 -5.892,-3.883M232.27561,238.83186c-0.827,-0.827 -1.336,-0.416 -2.495,2.014c-1.33,2.79 -1.458,3.783 -0.488,3.783c0.869,0 3.557,-5.224 2.983,-5.797M372.66361,239.43786c0,-0.361 -0.335,-0.769 -0.744,-0.905c-0.409,-0.136 -0.744,0.271 -0.744,0.905c0,0.635 0.335,1.042 0.744,0.906c0.409,-0.137 0.744,-0.544 0.744,-0.906M82.21561,239.89586c-2.285,-1.042 -2.175,-1.082 -2.564,0.951c-0.366,1.915 1.531,3.514 3.343,2.819c1.599,-0.614 1.126,-2.902 -0.779,-3.77M399.50361,240.45186c-2.196,-1.175 -3.415,-0.671 -3.415,1.413c0,0.91 2.521,2.764 3.758,2.764c1.006,0 0.709,-3.614 -0.343,-4.177M240.45161,242.06586c0.497,-0.497 0.509,-0.885 0.036,-1.177c-0.387,-0.239 -0.913,-0.098 -1.168,0.314c-0.657,1.064 0.244,1.751 1.132,0.863M377.74961,243.94886c-1.965,-1.69 -2.856,-2.116 -3.364,-1.608c-0.885,0.885 -0.392,1.467 2.153,2.54c3.038,1.281 5.243,3.064 5.894,4.765c0.626,1.635 1.698,1.528 2.254,-0.224c0.512,-1.614 -0.982,-3.116 -3.823,-3.841c-0.951,-0.243 -2.353,-0.978 -3.114,-1.632M393.75161,244.62886c-0.144,0 -1.379,-0.467 -2.745,-1.038c-2.207,-0.922 -5.326,0.754 -3.797,2.041c1.475,1.243 3.481,1.678 5.028,1.09c1.435,-0.546 2.554,-2.093 1.514,-2.093M99.94061,243.96086c-2.931,-1.569 -3.962,-0.755 -1.603,1.265c1.237,1.059 2.25,2.22 2.25,2.581c0,0.598 7.564,5.126 8.565,5.126c1.458,0 -0.132,-1.625 -3.721,-3.806c-2.284,-1.387 -4.152,-2.956 -4.152,-3.486c0,-0.53 -0.603,-1.286 -1.339,-1.68M108.89161,244.28286c0,-1.07 -0.817,-1.375 -1.596,-0.596c-0.553,0.553 0.072,1.634 0.945,1.634c0.358,0 0.651,-0.467 0.651,-1.038M246.60761,244.36786c0,-1.458 -1.625,0.131 -3.806,3.721c-1.387,2.284 -2.956,4.152 -3.486,4.152c-1.126,0 -2.409,2.13 -2.368,3.934c0.022,0.987 0.44,0.775 1.953,-0.993c1.059,-1.237 2.22,-2.249 2.581,-2.249c0.598,0 5.126,-7.565 5.126,-8.565M238.86261,245.37286c0.137,-0.41 -0.271,-0.744 -0.905,-0.744c-0.635,0 -1.042,0.334 -0.906,0.744c0.137,0.409 0.544,0.744 0.906,0.744c0.361,0 0.769,-0.335 0.905,-0.744M371.17561,248.10286c0,-1.093 -5.389,-3.581 -5.914,-2.731c-0.541,0.874 -0.557,0.857 2.246,2.283c2.529,1.286 3.668,1.425 3.668,0.448M112.40361,246.20286c0.029,-0.276 -0.322,-0.626 -0.778,-0.778c-0.457,-0.153 -0.706,0.096 -0.554,0.553c0.297,0.892 1.247,1.053 1.332,0.225M124.11661,249.49086c0,-0.869 -3.839,-2.869 -4.411,-2.297c-0.794,0.795 -0.449,1.358 1.329,2.168c2.152,0.98 3.082,1.019 3.082,0.129M226.61861,248.63886c0.344,-0.115 -0.004,-0.602 -0.775,-1.083c-1.239,-0.774 -1.494,-0.668 -2.216,0.917c-0.663,1.454 -0.628,1.91 0.182,2.423c1.725,1.091 2.919,0.763 2.537,-0.698c-0.194,-0.743 -0.072,-1.444 0.272,-1.559M235.15261,248.02986c-0.749,-1.212 -1.55,-0.617 -2.638,1.962c-1.281,3.037 -3.064,5.243 -4.765,5.894c-1.635,0.626 -1.528,1.698 0.224,2.254c1.61,0.511 3.103,-0.97 3.856,-3.823c0.251,-0.951 1.189,-2.613 2.085,-3.692c0.897,-1.078 1.454,-2.246 1.238,-2.595M363.79261,251.20286c-5.103,-2.703 -5.074,-2.694 -5.074,-1.6c0,0.515 1.401,1.703 3.114,2.638c1.713,0.936 3.114,2.059 3.114,2.496c0,1.333 1.976,2.538 3.279,1.999c0.825,-0.341 0.94,-0.608 0.355,-0.827c-0.476,-0.178 -0.866,-0.842 -0.867,-1.476c-0.001,-0.696 -1.558,-1.978 -3.921,-3.23M376.74461,251.04886c-0.743,0.194 -1.444,0.072 -1.559,-0.272c-0.115,-0.344 -0.602,0.005 -1.083,0.775c-0.774,1.239 -0.668,1.494 0.917,2.216c1.454,0.663 1.91,0.629 2.423,-0.182c1.091,-1.725 0.763,-2.919 -0.698,-2.537M123.69361,258.86586c-0.49,-1.28 -2.596,-1.496 -2.173,-0.223c0.159,0.475 0.807,0.965 1.44,1.088c0.803,0.156 1.025,-0.106 0.733,-0.865M126.19261,261.92986c0,-1.379 -0.737,-1.8 -1.615,-0.923c-0.843,0.843 -0.477,2.307 0.577,2.307c0.577,0 1.038,-0.615 1.038,-1.384M233.62161,261.41086c-1.564,-1.209 -1.908,-1.104 -2.803,0.862c-0.825,1.81 -0.066,5.193 1.165,5.193c1.457,0 2.843,-5.124 1.638,-6.055M237.34061,270.52586c-0.614,-1.599 -2.902,-1.127 -3.77,0.779c-1.042,2.285 -1.082,2.175 0.951,2.564c1.915,0.366 3.514,-1.531 2.819,-3.343" id="path0"/></g></g></svg>