<svg version="1.1" xmlns="http://www.w3.org/2000/svg" xmlns:xlink="http://www.w3.org/1999/xlink" width="24.05831" height="19.21979" viewBox="0,0,24.05831,19.21979"><g transform="translate(-228.41524,-172.44656)"><g data-paper-data="{&quot;isPaintingLayer&quot;:true}" fill="#9966ff" fill-rule="nonzero" stroke="none" stroke-width="0.5" stroke-linecap="butt" stroke-linejoin="miter" stroke-miterlimit="10" stroke-dasharray="" stroke-dashoffset="0" font-family="none" font-weight="none" font-size="none" text-anchor="none" style="mix-blend-mode: normal"><path d="M229.11856,190.64626c-1.64626,-1.88144 0.11367,-3.41403 0.11367,-3.41403l1,-1c1.30767,-1.30767 2.68022,-2.5276 4.08072,-3.70719c-0.23894,-0.53138 -0.40771,-1.12534 -0.81296,-1.52505c-1.1866,-1.17036 -2.66667,-2 -4,-3c0,0 -2,-1.5 -0.5,-3.5c1.5,-2 3.5,-0.5 3.5,-0.5c1.33333,1 2.82693,1.81607 4,3c0.67864,0.68492 1.08681,1.60739 1.60247,2.43014c2.45505,-1.97876 4.89514,-3.96328 7.12976,-6.19791c0,0 1.76777,-1.76777 3.53553,0c1.76777,1.76777 0,3.53553 0,3.53553c-1.94418,1.94418 -4.03884,3.69573 -6.16224,5.41714c1.02099,1.09539 1.93664,2.32615 3.16224,3.04732c0.54381,0.31999 2.7588,0.64139 3.5228,0.89606l1.5,0.5c0,0 2.68441,1.72015 1.2727,3.78342c-1.41171,2.06327 -2.85384,0.96 -2.85384,0.96l-1.5,-0.5c-1.81617,-0.60539 -3.83076,-1.10773 -5.4772,-2.10394c-1.12787,-0.68244 -2.13121,-2.87142 -3.0228,-3.39606c-0.10524,-0.06193 -0.21251,-0.12032 -0.32142,-0.17582c-1.75927,1.44818 -3.48936,2.94099 -5.12024,4.57188l-1,1c0,0 -2.00295,1.75994 -3.64921,-0.12151z"/></g></g></svg>