<svg version="1.1" xmlns="http://www.w3.org/2000/svg" xmlns:xlink="http://www.w3.org/1999/xlink" width="5.51621" height="5.51797" viewBox="0,0,5.51621,5.51797"><g transform="translate(-237.04678,-177.00523)"><g data-paper-data="{&quot;isPaintingLayer&quot;:true}" fill="#ff0000" fill-rule="nonzero" stroke="#ff0000" stroke-width="0.5" stroke-linecap="butt" stroke-linejoin="miter" stroke-miterlimit="10" stroke-dasharray="" stroke-dashoffset="0" font-family="none" font-weight="none" font-size="none" text-anchor="none" style="mix-blend-mode: normal"><path d="M238.987,178.9986c0.5978,-0.3555 0.4895,-1.7611 1.0093,-1.7432c0.5124,-0.0409 0.6083,1.1652 1.0551,1.6974c0.3432,0.4083 1.2634,0.4917 1.2616,0.9863c-0.0023,0.4193 -0.9368,0.3087 -1.124,0.7569c-0.2027,0.4918 0.6093,1.4181 0.2684,1.5772c-0.3913,0.1831 -1.0015,-0.8569 -1.5988,-0.889c-0.6248,0.0321 -1.2767,1.1501 -1.6446,0.889c-0.3899,-0.2766 0.3583,-1.2776 0.2225,-1.8983c-0.1395,-0.6312 -1.2864,-1.2974 -1.124,-1.6286c0.1478,-0.2963 1.1901,0.54 1.6745,0.2523z" data-paper-data="{&quot;origPos&quot;:null}" id="ID0.8349605752155185"/></g></g></svg>